<svg xmlns="http://www.w3.org/2000/svg" viewBox="0 0 90 112.5" x="0px" y="0px"><path d="M42.449,25.055c-.794,2.632-1.155,5.2.334,7.783,1.116,1.935,2.493,2.613,3.469.96,2.343-3.972,6.554-3.327,9.887-4.721a93.723,93.723,0,0,1,9.616-2.9c-.114,1.569-1.258,2.064-2.42,2.482-1.071.386-2.177.675-3.663,1.127.778.368,1.1.5,1.4.667.736.393.752,1.056.018,1.191a5.7,5.7,0,0,1-3.112-.144c-2.1-.908-3.951.023-5.841.515-.46.12-.708,1.052-1.053,1.611.477.255.941.7,1.433.732A24.1,24.1,0,0,1,60.172,35.7c.974.394,2.241.065,3.672.065-1.354,2.273-3.145,1.546-4.791,1.245-1.737-.318-3.451-.76-5.189-1.074-1.241-.224-1.962.233-2.174,1.624-1.255,8.261-2.077,16.481,1.555,24.426a7.092,7.092,0,0,1,.71,1.618,4.746,4.746,0,0,1-.239,1.517c-.47-.247-1.149-.372-1.379-.762a23.427,23.427,0,0,1-3.372-11.117c-.187-5.436-.419-10.9,1.075-16.249.5-1.782-.171-2.412-1.909-1.962-1.027.266-2,.779-3.038.949a9.28,9.28,0,0,1-3.41.083c-2.517-.555-4.984-1.341-7.464-2.059-.2-.057-.34-.309-.624-.581,2.436-2.2,4.641.01,7.164.3a7.847,7.847,0,0,0-2.971-6.134c2.205.1,3.153-1.738,4.744-2.443Z"/><path d="M38.483,49.079c-.044-4.27-.033-8.544-1.894-12.549a1.218,1.218,0,0,1,.317-1.153,1.241,1.241,0,0,1,1.19.27,12.486,12.486,0,0,1,1.552,3.534c1.661,9.255,1.466,18.411-2.122,27.245A6.193,6.193,0,0,1,31.653,70.7c-2.959.043-5.919.11-8.878.12A7.514,7.514,0,0,1,20.69,70.5a1.058,1.058,0,0,1-.63-.765.994.994,0,0,1,.591-.772,25.124,25.124,0,0,1,2.8-.248c3.072-.178,6.144-.386,9.219-.5A2.8,2.8,0,0,0,35.5,66.114,42.328,42.328,0,0,0,38.483,49.079Z"/><path d="M25.677,22.837c.509-3.226.509-3.226-.68-5.949,1.724.431,2.068.836,2.064,2.677,0,1.767-.2,3.542-.084,5.3a7.5,7.5,0,0,0,.963,2.969,2.36,2.36,0,0,0,1.605,1.163c2.217.052,2.25,1.87,2.967,3.353-2.253-2.026-4.39-.564-6.547-.092a9.876,9.876,0,0,0-6,3.68l-.153-2.99c-1.137-.065-2.29-.091-3.43-.227a.979.979,0,0,1-.633-.7.912.912,0,0,1,.575-.694c1.162-.166,2.493-.632,3.48-.253,2.8,1.074,5.021-.328,7.552-1.116a8.4,8.4,0,0,1-1.177-2.3c-.532-3.77-3.453-4.4-6.386-4.988-1.345-.271-2.731-.337-4.388-.529C17.787,20.386,18.377,20.438,25.677,22.837Z"/><path d="M42.535,25.152l-1.593-3.57c2.417.351,2.649,2.5,3.914,3.421,2.477,0,3.111-3.4,6.126-3.286l-1.851,2.836a5.5,5.5,0,0,0,5.6,1.369,5.289,5.289,0,0,1,1.358-.353,3.557,3.557,0,0,1,1.166.5c-.19.375-.289.964-.586,1.092-1.988.857-4.036,1.353-6.147.372-.747-.347-1.463-.768-2.229-1.064-.611-.236-1.734-.613-1.836-.445a4.464,4.464,0,0,0-.789,2.466c.11,1.329.854,2.611.1,4.7-.706-2.252-1.141-3.921-1.763-5.517a17.887,17.887,0,0,0-1.55-2.62Z"/><path d="M61.212,68.519c-2.1-.144-3.86-.219-5.606-.425a1.239,1.239,0,0,1-.794-.928,1.343,1.343,0,0,1,.819-.944A9.648,9.648,0,0,1,57.725,66q5.974-.4,11.949-.788c.234-.015.517-.087.694.014a2.659,2.659,0,0,1,.986.817c.087.145-.221.732-.47.839A11.862,11.862,0,0,1,67.913,67.9C65.585,68.215,63.232,68.344,61.212,68.519Z"/><path d="M48.01,11.272l1.352,4.251c2.413-2.019,4.633-4.121,8-4.02-1.709,1.011-3.636,1.785-5.068,3.1-1.5,1.376-2.527,3.269-3.9,5.131C49.744,16.69,46.34,14.34,48.01,11.272Z"/><path d="M59.544,72.119c-.608.442-1.164,1.141-1.834,1.278-2.412.494-4.858.846-7.306,1.125-.384.044-.843-.57-1.268-.88.312-.307.593-.839.94-.885C53.159,72.346,56.213,71.567,59.544,72.119Z"/><path d="M51.49,80.258c-.576.342-1.135.938-1.732.98-2.239.156-4.491.167-6.737.134-.328,0-.649-.542-.973-.834.3-.326.551-.8.924-.942a5.184,5.184,0,0,1,1.749-.213c2.2-.021,4.408-.008,6.612-.008Z"/><path d="M52.41,19.118c2.509-1.206,2.42-1.138,3.668.491a3.887,3.887,0,0,0,2.252,1.3c1.812.312,3.672.349,6.1.547-3.519,1.808-7.965.978-9.827-1.256C54.179,19.688,53.31,19.543,52.41,19.118Z"/><path d="M34.659,36.168c-3.031,2.126-6.13,2.795-9.275,1.789,1.461-1.323,3.087-1.114,4.593-1.374,1.523-.263,3-.77,4.5-1.171Z"/><path d="M30.763,77.3a7.236,7.236,0,0,1-1.666-.025,1.11,1.11,0,0,1-.689-.625c-.049-.256.2-.8.389-.835q3.459-.686,6.947-1.215c.2-.031.718.485.678.649-.094.392-.374.968-.682,1.042C33.9,76.732,32.03,77.053,30.763,77.3Z"/><path d="M45.02,13.657a6.719,6.719,0,0,1-.836,1.708c-.949,1.042-5.944,3.417-8.011,3.87,2.214-3.048,6.324-2.99,8.079-6.184Z"/><path d="M58.7,19.308c1.824-2.861,4.9-3.634,8.3-4.783-.527,2.5-2.634,2.024-3.787,2.851-1.3.934-2.71,1.726-4.071,2.58Z"/><path d="M33.482,23.18c0-2.447.007-4.188,0-5.929-.009-1.656-2.342-2.485-1.6-4.445C34.791,16.549,34.815,16.683,33.482,23.18Z"/></svg>